<svg xmlns="http://www.w3.org/2000/svg" width="21" height="16" viewBox="0 0 21 16"><defs><radialGradient id="l73sa" cx="16.33" cy="12.25" r="14.61" gradientUnits="userSpaceOnUse"><stop offset="0" stop-color="#7e00e8"/><stop offset=".4" stop-color="#ff1876"/><stop offset="1" stop-color="#bb0cb2"/></radialGradient></defs><g><g><path fill="url(#l73sa)" d="M16.348 15.205a.764.764 0 0 1-.746-.745c0-.398.348-.746.746-.746.397 0 .745.348.745.746a.764.764 0 0 1-.745.745zm-8.293 0c-.4 0-.75-.348-.75-.745 0-.398.35-.746.75-.746s.75.348.75.746c0 .397-.35.745-.75.745zM19.627 3.329l-1.341 6.51H6.112L4.72 3.329zm-1.043 7.255c.05 0 .1 0 .149-.05h.05c.05 0 .05-.05.05-.05s0-.05.049-.05l.05-.049v-.1l1.49-7.254v-.1-.049-.05s0-.05-.05-.05c0 0 0-.05-.049-.05l-.1-.098s-.05 0-.05-.05h-.049H4.571L4.075.298v-.05c0-.05 0-.05-.05-.05 0 0 0-.049-.05-.049l-.1-.1S3.827.05 3.827 0h-.1H.398A.392.392 0 0 0 0 .398c0 .248.15.397.398.397h2.98l1.939 9.143a1.925 1.925 0 0 0-1.49 1.888 1.94 1.94 0 0 0 1.937 1.938h.944c-.149.199-.199.447-.199.745C6.51 15.354 7.155 16 8 16c.845 0 1.49-.646 1.49-1.49 0-.25-.099-.547-.198-.746h5.714c-.149.199-.199.447-.199.745 0 .845.646 1.491 1.491 1.491.845 0 1.49-.646 1.49-1.49 0-.25-.099-.547-.198-.746h.944c.199 0 .398-.15.398-.398 0-.248-.15-.397-.398-.397H5.814a1.21 1.21 0 0 1-1.193-1.193 1.21 1.21 0 0 1 1.193-1.192z"/></g></g></svg>